<svg width="136.743" height="136.704" xmlns="http://www.w3.org/2000/svg">
 <g>
  <path fill="#000000" id="path5" d="m136.742996,68.330002c0,34.834999 -27.325996,64.901993 -62.044998,68.093994c-34.730999,3.192001 -67.230998,-21.228996 -73.583998,-55.576996c-6.353,-34.339001 15.08,-68.931 48.734999,-78.37c33.665001,-9.439 70.042999,8.891 82.458008,41.570001c2.940994,7.739998 4.435989,16.002998 4.435989,24.283001"/>
  <path fill="#bfbfbf" id="path12" d="m131.906006,68.330002c0,34.630997 -28.916992,63.548996 -63.548996,63.548996c-34.632999,0 -63.55,-28.917999 -63.55,-63.548996c0,-34.633003 28.917,-63.550002 63.55,-63.550002c34.631989,0 63.548996,28.915999 63.548996,63.550002"/>
  <path fill="#3f3f3f" id="path14" d="m125.777,43.626999c5.135994,29.927002 -12.739998,59.992004 -41.484001,69.786003c-30.486,10.388 -64.792,-4.966003 -77.540999,-34.495003c6.126,35.736 42.872001,59.229004 77.882003,49.781998c36.149994,-9.756996 56.042999,-50.602997 41.142998,-85.072998"/>
  <path fill="#ffffff" id="path16" d="m108.049004,40.118c-8.789001,1.819 -18.908005,-10.632 -26.528,-13.799c-14.237007,-5.919001 -32.021004,-3.171 -44.919003,4.889c-13.643002,8.522999 -23.347001,24.896 -24.839002,40.968002c-0.004999,0.045998 -0.004999,0.056 -0.002,0.024994c1.008,-9.732998 0.328,-18.881996 4.034,-28.289997c6.141001,-15.594999 19.422998,-27.804998 35.434999,-32.709999c16.556004,-5.072 34.660999,-1.845 48.923,7.82c4.403999,2.986 21.358002,18.311001 7.896004,21.097"/>
  <path fill="#ffffff" id="path18" d="m52.655998,37.577c0,17.674999 0,35.348003 0,53.021999c0,5.399002 -2.216,15.432999 5.681004,15.813004c6.644001,0.322998 14.157001,-8.493004 18.84,-12.189003c7.758995,-6.116997 15.515999,-12.235001 23.275002,-18.353996c7.475998,-5.896004 1.937996,-10.271004 -3.596001,-14.651005c-8.334,-6.599998 -16.669006,-13.199997 -25.002007,-19.799c-2.683998,-2.125 -5.365997,-4.25 -8.048996,-6.374001c-2.696999,-2.137997 -11.149002,-2.473999 -11.149002,2.532001"/>
  <path fill="#000000" id="path20" d="m54.657001,33.563999c-5.175003,2.503002 -2.903,14.431999 -2.903,18.903999c0,11.037003 0,22.075001 0,33.111004c0,4.375999 -2.163002,16.077995 1.397999,19.720001c6.828999,6.979996 17.409996,-4.710007 22.374001,-8.624001c8.073997,-6.369003 16.148003,-12.736 24.223999,-19.104004c1.999001,-1.576996 4.769997,-3.234001 5.613998,-5.766998c1.409004,-4.229004 -2.137001,-6.694 -4.949997,-8.923c-7.931999,-6.278999 -15.861,-12.561001 -23.794998,-18.84c-5.583,-4.422001 -13.931004,-14.359001 -21.962002,-10.477001m0.961998,71.296001c-4.181999,-2.017998 -2.061001,-14.494003 -2.061001,-17.969002c0,-11.037003 0,-22.074997 0,-33.112999c0,-3.473 -2.081997,-14.782001 0.620003,-17.697998c5.789997,-6.250002 16.195999,5.313999 20.226997,8.507c7.833,6.203999 15.669998,12.405998 23.502998,18.609997c1.675003,1.326004 4.416,2.885002 5.466003,4.862c1.965996,3.713005 -2.337997,6.201004 -4.741997,8.098c-7.710007,6.079002 -15.421005,12.159004 -23.131004,18.240005c-4.493996,3.543999 -13.235001,13.68 -19.882,10.462997"/>
 </g>
</svg>